<svg width="60" height="46" viewBox="0 0 60 46" fill="none" xmlns="http://www.w3.org/2000/svg">
<path fill-rule="evenodd" clip-rule="evenodd" d="M59.8264 0.782956L59.0494 0.00543213H49.324L49.5884 0.782956V7.6086L49.324 8.38996L52.65 8.38804L52.6448 37.8235L47.6274 37.8244V38.601V44.2266V45.0042H59.0494L59.8264 44.2266V0.782956Z" fill="white"/>
<path fill-rule="evenodd" clip-rule="evenodd" d="M14.9399 7.6085L15.7169 8.38542H25.8044V43.6278L26.5813 44.4047H34.1748L34.9517 43.6278V8.38542H45.0392L45.8162 7.6085V0.782354L45.0392 0.00543213H15.7169L14.9399 0.782354V7.6085Z" fill="white"/>
<path fill-rule="evenodd" clip-rule="evenodd" d="M0.929932 0.781674L1.70698 0.00415039H11.4323L11.1679 0.781674V7.60732L11.4323 8.38868L8.10631 8.38676L8.11158 37.8222L13.129 37.8231V38.5997V44.2253V45.0029H1.70698L0.929932 44.2253V0.781674Z" fill="white"/>
</svg>
