<?xml version="1.0" encoding="UTF-8" standalone="no"?>
<svg
   width="256"
   height="257"
   viewBox="0 0 256 257"
   fill="none"
   version="1.1"
   id="svg5"
   sodipodi:docname="icon-color.svg"
   inkscape:version="1.4 (e7c3feb100, 2024-10-09)"
   xmlns:inkscape="http://www.inkscape.org/namespaces/inkscape"
   xmlns:sodipodi="http://sodipodi.sourceforge.net/DTD/sodipodi-0.dtd"
   xmlns="http://www.w3.org/2000/svg"
   xmlns:svg="http://www.w3.org/2000/svg">
  <defs
     id="defs5" />
  <sodipodi:namedview
     id="namedview5"
     pagecolor="#ffffff"
     bordercolor="#000000"
     borderopacity="0.25"
     inkscape:showpageshadow="2"
     inkscape:pageopacity="0.0"
     inkscape:pagecheckerboard="0"
     inkscape:deskcolor="#d1d1d1"
     inkscape:zoom="3.2589248"
     inkscape:cx="104.48231"
     inkscape:cy="138.23578"
     inkscape:window-width="1532"
     inkscape:window-height="956"
     inkscape:window-x="0"
     inkscape:window-y="0"
     inkscape:window-maximized="1"
     inkscape:current-layer="svg5" />
  <path
     fill-rule="evenodd"
     clip-rule="evenodd"
     d="M61.01 256.751H128H194.99C197.336 256.751 199.655 256.751 201.995 256.738C203.954 256.738 205.897 256.713 207.875 256.67C212.171 256.613 216.458 256.235 220.698 255.538C224.931 254.81 229.031 253.449 232.861 251.501C236.695 249.557 240.192 247.01 243.218 243.957C246.272 240.943 248.818 237.454 250.757 233.626C252.704 229.791 254.053 225.681 254.756 221.438C255.469 217.204 255.852 212.92 255.903 208.626C255.944 207.268 255.959 205.939 255.975 204.6C255.983 203.979 255.99 203.356 256 202.726V54.7948C255.996 54.559 255.993 54.323 255.99 54.087C255.984 53.6935 255.98 53.2998 255.975 52.906V52.9042C255.959 51.5695 255.943 50.2339 255.903 48.9012C255.852 44.6071 255.469 40.3234 254.756 36.0885C254.051 31.8481 252.702 27.7405 250.757 23.9072C248.818 20.0663 246.272 16.5631 243.218 13.5322C240.18 10.4928 236.685 7.94763 232.861 5.98877C229.031 4.04639 224.931 2.6936 220.698 1.97595C216.458 1.27368 212.172 0.89563 207.875 0.845093L206.647 0.825073C206.048 0.815186 205.452 0.805298 204.856 0.796387C203.902 0.781982 202.95 0.77002 201.995 0.763794C200.851 0.757568 199.712 0.754395 198.572 0.752686C197.381 0.750977 196.189 0.750977 194.99 0.750977H128H61.01C58.6636 0.750977 56.3453 0.750977 54.0051 0.763794C52.4465 0.774048 50.8977 0.799561 49.3336 0.825439L48.125 0.845093C43.8284 0.89563 39.5417 1.27368 35.3025 1.97595C31.0693 2.6936 26.9686 4.04651 23.1393 5.98877C19.3146 7.94763 15.8199 10.4929 12.782 13.5322C9.72803 16.5631 7.18237 20.0663 5.2428 23.9072C3.29797 27.7405 1.94934 31.8481 1.24365 36.0885C0.531128 40.3234 0.147827 44.6072 0.0969238 48.9012C0.0375977 50.8635 0.03125 52.8323 0 54.7948V202.726C0.00976562 203.348 0.0169678 203.964 0.0241699 204.578L0.0245361 204.597C0.0405273 205.937 0.0563965 207.267 0.0969238 208.626C0.147827 212.92 0.531128 217.204 1.24365 221.438C1.94739 225.681 3.29602 229.791 5.2428 233.626C7.18152 237.454 9.72754 240.943 12.782 243.957C15.8083 247.01 19.3054 249.557 23.1393 251.501C26.9686 253.449 31.0688 254.81 35.3025 255.538C39.5425 256.235 43.8286 256.613 48.125 256.67C50.1028 256.713 52.0461 256.738 54.0051 256.738C54.5145 256.741 55.0228 256.743 55.5306 256.745C57.356 256.751 59.1744 256.751 61.01 256.751Z"
     fill="#F6F6F6"
     id="path1" />
  <path
     fill-rule="evenodd"
     clip-rule="evenodd"
     d="M54.0437 251.251H201.956C203.91 251.251 205.816 251.226 207.754 251.182C211.769 251.13 215.774 250.781 219.737 250.138C223.432 249.502 227.012 248.319 230.359 246.628C233.674 244.952 236.698 242.753 239.315 240.117C241.969 237.512 244.18 234.49 245.857 231.172C247.554 227.832 248.728 224.252 249.339 220.557C249.998 216.587 250.355 212.572 250.406 208.547C250.447 207.196 250.5 202.699 250.5 202.699V54.7343C250.5 54.7343 250.443 50.3057 250.406 49.0046C250.357 44.9865 250.002 40.9779 249.345 37.0135C248.733 33.3082 247.558 29.7181 245.86 26.3674C244.189 23.0515 241.991 20.0278 239.352 17.4132C236.717 14.7739 233.683 12.564 230.362 10.8641C227.023 9.17881 223.45 8.00436 219.762 7.37998C215.786 6.73031 211.767 6.37903 207.738 6.32918L201.953 6.25098H54.0468L48.262 6.32918C44.2333 6.37903 40.214 6.73031 36.2379 7.37998C32.5499 8.00436 28.9768 9.17881 25.6383 10.8641C22.3171 12.564 19.2833 14.7739 16.6477 17.4132C14.0092 20.0278 11.8114 23.0515 10.1395 26.3674C8.44226 29.7181 7.26733 33.3082 6.6554 37.0135C5.9978 40.9779 5.64307 44.9865 5.59424 49.0046C5.55664 50.3057 5.5 54.7343 5.5 54.7343V202.699C5.5 202.699 5.51648 204.094 5.53821 205.564C5.55542 206.733 5.57581 207.949 5.59387 208.547C5.6449 212.572 6.00171 216.587 6.66125 220.557C7.27209 224.252 8.44604 227.832 10.1426 231.172C11.8204 234.49 14.0305 237.512 16.6851 240.117C19.3018 242.753 22.3259 244.952 25.6414 246.628C28.9877 248.319 32.5675 249.502 36.2629 250.138C40.2261 250.781 44.2314 251.13 48.2462 251.182C50.1842 251.226 52.0903 251.251 54.0437 251.251Z"
     fill="white"
     id="path2" />
  <path
     fill-rule="evenodd"
     clip-rule="evenodd"
     d="m 29.8391,56.3427 2.5902,-2.5917 h 38.0734 v 27.9484 l -16.7423,-0.0064 0.0175,98.118 16.7248,0.003 v 23.933 H 32.4293 l -2.5902,-2.592 z"
     fill="#de4141"
     id="path3"
     sodipodi:nodetypes="ccccccccccc" />
  <path
     fill-rule="evenodd"
     clip-rule="evenodd"
     d="m 226.161,56.347 -2.591,-2.5918 h -38.073 v 27.9485 l 16.742,-0.0064 -0.017,98.1177 -16.725,0.004 v 23.932 h 38.073 l 2.591,-2.592 z"
     fill="#de4141"
     id="path4"
     sodipodi:nodetypes="ccccccccccc" />
  <path
     fill-rule="evenodd"
     clip-rule="evenodd"
     d="M76.5398 79.0988L79.1295 81.6886H112.755V199.163L115.344 201.753H140.656L143.246 199.163V81.6886H176.871L179.461 79.0988V56.345L176.871 53.7552H79.1295L76.5398 56.345V79.0988Z"
     fill="black"
     id="path5" />
</svg>
