<svg width="195" height="46" viewBox="0 0 195 46" fill="none" xmlns="http://www.w3.org/2000/svg">
<path fill-rule="evenodd" clip-rule="evenodd" d="M194.876 2.02581L194.13 1.28013H183.335V2.02581V8.29283V9.04311L187.117 9.03943L187.122 36.728L181.468 36.7307L181.722 37.4764V43.7434L181.468 44.4891H194.13L194.876 43.7434V2.02581Z" fill="#DE4141"/>
<path fill-rule="evenodd" clip-rule="evenodd" d="M0.61969 2.02673L1.36583 1.28013H12.1447L11.8909 2.02673V8.29283L12.1447 9.04311L8.37485 9.04127L8.37991 36.7298L13.7739 36.7307V37.4764V43.7425V44.4891H1.36583L0.61969 43.7425V2.02673Z" fill="#DE4141"/>
<path d="M149.577 1.26062L148.831 2.00664V43.7242L149.577 44.4702H177.209L177.955 43.7242V37.4576L177.209 36.7116H157.902V2.00664L157.156 1.26062H149.577Z" fill="white"/>
<path d="M99.6865 1.26086L98.9405 2.00689V43.7244L99.6865 44.4704H106.848L107.594 43.7244V20.0483L118.584 44.0351L119.262 44.4704H122.843L123.521 44.0351L134.511 20.0483V43.7244L135.257 44.4704H142.419L143.165 43.7244V2.00689L142.419 1.26086H135.018L134.34 1.69678L121.053 30.7692L107.766 1.69678L107.087 1.26086H99.6865Z" fill="white"/>
<path fill-rule="evenodd" clip-rule="evenodd" d="M83.2411 3.19691C76.5775 -0.53967 66.945 -0.460535 60.2672 3.19691C56.8413 5.0954 54.1408 7.7574 52.1659 11.1829C48.2836 17.9168 48.2836 27.9738 52.1659 34.7076C54.0596 37.9526 56.7785 40.6361 60.0279 42.5111C66.7588 46.3951 76.8115 46.3951 83.5424 42.5111C86.766 40.6283 89.4608 37.9318 91.3424 34.7076C95.2247 27.9738 95.2247 17.9168 91.3424 11.1829C89.3675 7.7574 86.667 5.0954 83.2411 3.19691ZM78.7585 10.5535C74.6952 8.21036 68.8214 8.25998 64.7495 10.5535C62.6604 11.744 61.0138 13.4133 59.8095 15.5614C57.4421 19.784 57.4421 26.0906 59.8095 30.3133C60.9558 32.3334 62.6079 34.0224 64.6035 35.2067C68.708 37.6422 74.8379 37.6422 78.9423 35.2067C80.9221 34.0175 82.5594 32.3207 83.6986 30.3133C86.0659 26.0906 86.0659 19.784 83.6986 15.5614C82.4943 13.4133 80.8476 11.744 78.7585 10.5535Z" fill="white"/>
<path fill-rule="evenodd" clip-rule="evenodd" d="M15.657 8.29349L16.4031 9.03951H28.2499V43.7444L28.9959 44.4904H36.5755L37.3215 43.7444V9.03951H49.1683L49.9144 8.29349V2.02691L49.1683 1.28088H16.4031L15.657 2.02691V8.29349Z" fill="white"/>
</svg>
