<svg width="205" height="53" viewBox="0 0 205 53" fill="none" xmlns="http://www.w3.org/2000/svg">
<path fill-rule="evenodd" clip-rule="evenodd" d="M6.34778 0.732178C3.1928 0.732178 0.576294 3.33738 0.576294 6.50348V47.0609C0.576294 50.2253 3.16667 52.8322 6.34778 52.8322C70.6146 52.8322 134.882 52.8322 199.148 52.8322C202.333 52.8322 204.92 50.2268 204.92 47.0609V6.50348C204.92 3.31658 202.316 0.732178 199.148 0.732178C133.945 0.732178 71.4178 0.732178 6.34778 0.732178Z" fill="white"/>
<path fill-rule="evenodd" clip-rule="evenodd" d="M199.876 5.90147L199.13 5.15579H188.335V5.90147V12.1685V12.9188L192.117 12.9151L192.122 40.6036L186.468 40.6064L186.722 41.3521V47.6191L186.468 48.3648H199.13L199.876 47.6191V5.90147Z" fill="#DE4141"/>
<path fill-rule="evenodd" clip-rule="evenodd" d="M5.61926 5.90239L6.3654 5.15579H17.1443L16.8904 5.90239V12.1685L17.1443 12.9188L13.3744 12.9169L13.3795 40.6055L18.7735 40.6064V41.3521V47.6182V48.3648H6.3654L5.61926 47.6182V5.90239Z" fill="#DE4141"/>
<path d="M154.576 5.13602L153.83 5.88204V47.5996L154.576 48.3456H182.209L182.955 47.5996V41.333L182.209 40.587H162.902V5.88204L162.156 5.13602H154.576Z" fill="black"/>
<path d="M104.686 5.13638L103.94 5.8824V47.5999L104.686 48.3459H111.848L112.594 47.5999V23.9239L123.583 47.9107L124.262 48.3459H127.843L128.521 47.9107L139.51 23.9239V47.5999L140.256 48.3459H147.418L148.164 47.5999V5.8824L147.418 5.13638H140.018L139.339 5.5723L126.052 34.6447L112.765 5.5723L112.087 5.13638H104.686Z" fill="black"/>
<path fill-rule="evenodd" clip-rule="evenodd" d="M88.2407 7.07243C81.5771 3.33585 71.9445 3.41498 65.2668 7.07243C61.8409 8.97092 59.1404 11.6329 57.1655 15.0584C53.2831 21.7923 53.2831 31.8493 57.1655 38.5831C59.0592 41.8281 61.7781 44.5116 65.0274 46.3866C71.7584 50.2706 81.811 50.2706 88.542 46.3866C91.7655 44.5038 94.4604 41.8074 96.342 38.5831C100.224 31.8493 100.224 21.7923 96.342 15.0584C94.367 11.6329 91.6666 8.97091 88.2407 7.07243ZM83.7581 14.429C79.6948 12.0859 73.821 12.1355 69.7491 14.429C67.66 15.6195 66.0133 17.2888 64.809 19.4369C62.4417 23.6596 62.4417 29.9661 64.809 34.1888C65.9554 36.2089 67.6074 37.8979 69.6031 39.0822C73.7075 41.5178 79.8374 41.5178 83.9418 39.0822C85.9217 37.893 87.559 36.1962 88.6981 34.1888C91.0655 29.9661 91.0655 23.6596 88.6981 19.4369C87.4938 17.2888 85.8472 15.6195 83.7581 14.429Z" fill="black"/>
<path fill-rule="evenodd" clip-rule="evenodd" d="M20.6566 12.1689L21.4026 12.9149H33.2495V47.6198L33.9955 48.3658H41.5751L42.3211 47.6198V12.9149H54.1679L54.9139 12.1689V5.9023L54.1679 5.15628H21.4026L20.6566 5.9023V12.1689Z" fill="black"/>
</svg>
