<svg width="555" height="201" viewBox="0 0 555 201" fill="none" xmlns="http://www.w3.org/2000/svg">
<path d="M19.2692 184.198L20.6794 187.553C19.9986 188.007 19.1558 188.412 18.1508 188.768C17.1459 189.093 16.1409 189.336 15.136 189.498C14.1635 189.692 13.3369 189.79 12.6561 189.79C10.2572 189.79 8.1663 189.271 6.38335 188.234C4.63282 187.164 3.28751 185.705 2.34741 183.857C1.40731 181.977 0.937256 179.805 0.937256 177.341C0.969673 174.878 1.45593 172.722 2.39603 170.874C3.36855 169.026 4.74628 167.584 6.52923 166.546C8.31218 165.477 10.4193 164.942 12.8506 164.942C13.4989 164.942 14.3094 165.039 15.2819 165.234C16.2544 165.396 17.2431 165.655 18.2481 166.012C19.253 166.336 20.0959 166.741 20.7766 167.227L19.4151 170.534C18.4102 170.112 17.4052 169.74 16.4003 169.415C15.3953 169.091 14.1959 168.929 12.802 168.929C11.3432 168.929 10.0789 169.302 9.00915 170.048C7.9718 170.793 7.16137 171.798 6.57786 173.062C6.02676 174.327 5.73501 175.737 5.70259 177.293C5.70259 179.757 6.30231 181.799 7.50175 183.42C8.70119 185.008 10.4193 185.802 12.6561 185.802C14.0825 185.802 15.2819 185.656 16.2544 185.365C17.2593 185.073 18.2643 184.684 19.2692 184.198Z" fill="white"/>
<path d="M39.2156 189.79C36.8167 189.79 34.742 189.271 32.9915 188.234C31.2409 187.164 29.8956 185.705 28.9555 183.857C28.0154 181.977 27.5454 179.805 27.5454 177.341C27.5778 174.878 28.064 172.722 29.0041 170.874C29.9767 169.026 31.3382 167.584 33.0887 166.546C34.8717 165.477 36.9788 164.942 39.4101 164.942C41.8414 164.942 43.9323 165.477 45.6828 166.546C47.4333 167.584 48.7787 169.043 49.7188 170.923C50.6589 172.771 51.1289 174.926 51.1289 177.39C51.1289 179.821 50.6426 181.977 49.6701 183.857C48.6976 185.705 47.3199 187.164 45.5369 188.234C43.7864 189.271 41.6793 189.79 39.2156 189.79ZM39.2642 185.802C40.7554 185.802 42.0197 185.43 43.057 184.684C44.1268 183.938 44.9372 182.933 45.4883 181.669C46.0718 180.405 46.3636 178.995 46.3636 177.439C46.3636 174.975 45.7639 172.949 44.5644 171.36C43.365 169.74 41.6469 168.929 39.4101 168.929C37.9513 168.929 36.687 169.302 35.6173 170.048C34.5799 170.793 33.7695 171.798 33.186 173.062C32.6349 174.327 32.3431 175.737 32.3107 177.293C32.3107 179.757 32.9104 181.799 34.1099 183.42C35.3093 185.008 37.0274 185.802 39.2642 185.802Z" fill="white"/>
<path d="M64.2217 189.158H59.5536V165.574H62.8115L63.6382 168.686C64.8376 167.584 66.2315 166.66 67.82 165.914C69.4408 165.169 71.0455 164.796 72.634 164.796C75.3246 164.796 77.2534 165.639 78.4204 167.324C79.6199 168.978 80.2196 171.069 80.2196 173.597V189.158H75.5515V174.035C75.5515 172.446 75.276 171.182 74.7249 170.242C74.2062 169.27 73.185 168.783 71.6614 168.783C70.462 168.783 69.1977 169.156 67.8686 169.902C66.5719 170.647 65.3563 171.523 64.2217 172.527V189.158Z" fill="white"/>
<path d="M87.7736 169.415L87.7249 165.866H91.3233V162.802C91.3233 160.436 91.9878 158.556 93.3169 157.162C94.646 155.735 96.4776 155.022 98.8116 155.022C99.5248 155.022 100.254 155.136 101 155.363C101.745 155.589 102.329 155.833 102.75 156.092L101.583 159.69C101.259 159.561 100.87 159.447 100.416 159.35C99.9949 159.22 99.6059 159.155 99.2493 159.155C98.0823 159.155 97.2394 159.544 96.7207 160.322C96.2345 161.068 95.9913 162.04 95.9913 163.24V165.866H100.368L101.875 169.415H95.9913V189.158H91.3233V169.415H87.7736Z" fill="white"/>
<path d="M112.016 161.344C111.206 161.344 110.525 161.068 109.974 160.517C109.423 159.933 109.147 159.236 109.147 158.426C109.147 157.616 109.423 156.935 109.974 156.384C110.525 155.8 111.206 155.508 112.016 155.508C112.827 155.508 113.524 155.8 114.107 156.384C114.691 156.935 114.982 157.616 114.982 158.426C114.982 159.236 114.691 159.933 114.107 160.517C113.524 161.068 112.827 161.344 112.016 161.344ZM114.447 189.158H109.731V165.574H114.447V189.158Z" fill="white"/>
<path d="M144.456 165.574V191.248C144.456 192.967 144.018 194.506 143.143 195.868C142.268 197.262 140.987 198.348 139.302 199.126C137.648 199.936 135.606 200.341 133.175 200.341C132.526 200.341 131.684 200.244 130.646 200.05C129.609 199.888 128.555 199.628 127.485 199.272C126.448 198.915 125.557 198.494 124.811 198.007L126.221 194.652C127.356 195.171 128.409 195.609 129.382 195.965C130.387 196.354 131.602 196.549 133.029 196.549C134.974 196.549 136.578 196.095 137.843 195.187C139.107 194.279 139.739 192.95 139.739 191.2V188.136C138.799 188.687 137.859 189.093 136.919 189.352C135.979 189.644 135.201 189.79 134.585 189.79C132.186 189.79 130.095 189.271 128.312 188.234C126.562 187.164 125.216 185.689 124.276 183.809C123.336 181.928 122.866 179.724 122.866 177.196C122.866 174.732 123.352 172.592 124.325 170.777C125.297 168.929 126.659 167.503 128.409 166.498C130.192 165.46 132.267 164.942 134.633 164.942C135.379 164.942 136.335 165.12 137.502 165.477C138.669 165.801 139.788 166.384 140.858 167.227L141.781 165.574H144.456ZM127.631 177.147C127.631 179.675 128.231 181.75 129.43 183.371C130.63 184.992 132.348 185.802 134.585 185.802C135.655 185.802 136.595 185.64 137.405 185.316C138.216 184.992 138.994 184.489 139.739 183.809V170.777C138.313 169.545 136.595 168.929 134.585 168.929C132.38 168.929 130.662 169.723 129.43 171.312C128.231 172.868 127.631 174.813 127.631 177.147Z" fill="white"/>
<path d="M167.756 169.415L167.708 165.866H171.306V162.802C171.306 160.436 171.97 158.556 173.3 157.162C174.629 155.735 176.46 155.022 178.794 155.022C179.507 155.022 180.237 155.136 180.982 155.363C181.728 155.589 182.312 155.833 182.733 156.092L181.566 159.69C181.242 159.561 180.853 159.447 180.399 159.35C179.977 159.22 179.588 159.155 179.232 159.155C178.065 159.155 177.222 159.544 176.703 160.322C176.217 161.068 175.974 162.04 175.974 163.24V165.866H180.35L181.858 169.415H175.974V189.158H171.306V169.415H167.756Z" fill="white"/>
<path d="M191.999 161.344C191.188 161.344 190.507 161.068 189.956 160.517C189.405 159.933 189.13 159.236 189.13 158.426C189.13 157.616 189.405 156.935 189.956 156.384C190.507 155.8 191.188 155.508 191.999 155.508C192.809 155.508 193.506 155.8 194.09 156.384C194.673 156.935 194.965 157.616 194.965 158.426C194.965 159.236 194.673 159.933 194.09 160.517C193.506 161.068 192.809 161.344 191.999 161.344ZM194.43 189.158H189.713V165.574H194.43V189.158Z" fill="white"/>
<path d="M209.462 189.158H204.794V155.363L209.462 154.828V189.158Z" fill="white"/>
<path d="M239.982 178.411H223.255C223.417 180.583 224.114 182.366 225.346 183.76C226.578 185.154 228.523 185.851 231.181 185.851C232.575 185.851 233.774 185.656 234.779 185.267C235.817 184.878 236.984 184.376 238.28 183.76L239.739 187.164C238.572 187.877 237.259 188.493 235.8 189.012C234.374 189.498 232.834 189.741 231.181 189.741C228.393 189.741 226.043 189.222 224.13 188.185C222.218 187.148 220.775 185.705 219.803 183.857C218.862 181.977 218.392 179.805 218.392 177.341C218.392 174.878 218.846 172.722 219.754 170.874C220.662 169.026 221.958 167.584 223.644 166.546C225.33 165.477 227.34 164.942 229.674 164.942C232.137 164.942 234.115 165.542 235.606 166.741C237.13 167.94 238.232 169.529 238.913 171.506C239.626 173.484 239.982 175.623 239.982 177.925V178.411ZM223.352 175.251H235.46C235.168 173.305 234.552 171.766 233.612 170.631C232.672 169.496 231.311 168.929 229.528 168.929C227.712 168.929 226.286 169.513 225.249 170.68C224.211 171.814 223.579 173.338 223.352 175.251Z" fill="white"/>
<path d="M247.142 187.65L248.601 184.392C249.606 184.878 250.643 185.267 251.713 185.559C252.783 185.851 253.852 185.997 254.922 185.997C256.478 185.997 257.71 185.721 258.618 185.17C259.558 184.619 260.028 183.89 260.028 182.982C260.028 182.074 259.525 181.296 258.52 180.648C257.548 179.967 256.3 179.384 254.776 178.897C253.544 178.476 252.329 177.957 251.129 177.341C249.962 176.725 248.99 175.964 248.212 175.056C247.434 174.148 247.045 173.062 247.045 171.798C247.045 169.659 247.839 167.989 249.427 166.79C251.048 165.558 253.236 164.942 255.992 164.942C256.673 164.942 257.467 165.039 258.375 165.234C259.315 165.396 260.255 165.639 261.195 165.963C262.135 166.287 262.929 166.692 263.578 167.179L262.119 170.339C261.211 169.918 260.255 169.545 259.25 169.221C258.277 168.897 257.159 168.735 255.895 168.735C254.663 168.735 253.642 169.026 252.831 169.61C252.053 170.161 251.664 170.858 251.664 171.701C251.697 172.414 252.15 173.046 253.026 173.597C253.933 174.116 255.1 174.618 256.527 175.105C257.823 175.558 259.072 176.142 260.271 176.855C261.503 177.536 262.508 178.363 263.286 179.335C264.096 180.308 264.501 181.442 264.501 182.739C264.501 184.943 263.675 186.678 262.021 187.942C260.401 189.174 258.034 189.79 254.922 189.79C254.274 189.79 253.463 189.709 252.491 189.547C251.518 189.384 250.546 189.141 249.573 188.817C248.633 188.493 247.823 188.104 247.142 187.65Z" fill="white"/>
<path d="M286.044 169.415L285.996 165.866H289.594V162.802C289.594 160.436 290.259 158.556 291.588 157.162C292.917 155.735 294.748 155.022 297.082 155.022C297.796 155.022 298.525 155.136 299.271 155.363C300.016 155.589 300.6 155.833 301.021 156.092L299.854 159.69C299.53 159.561 299.141 159.447 298.687 159.35C298.266 159.22 297.877 159.155 297.52 159.155C296.353 159.155 295.51 159.544 294.991 160.322C294.505 161.068 294.262 162.04 294.262 163.24V165.866H298.638L300.146 169.415H294.262V189.158H289.594V169.415H286.044Z" fill="white"/>
<path d="M318.213 189.79C315.814 189.79 313.739 189.271 311.989 188.234C310.238 187.164 308.893 185.705 307.953 183.857C307.013 181.977 306.543 179.805 306.543 177.341C306.575 174.878 307.061 172.722 308.001 170.874C308.974 169.026 310.335 167.584 312.086 166.546C313.869 165.477 315.976 164.942 318.407 164.942C320.839 164.942 322.93 165.477 324.68 166.546C326.431 167.584 327.776 169.043 328.716 170.923C329.656 172.771 330.126 174.926 330.126 177.39C330.126 179.821 329.64 181.977 328.667 183.857C327.695 185.705 326.317 187.164 324.534 188.234C322.784 189.271 320.677 189.79 318.213 189.79ZM318.261 185.802C319.753 185.802 321.017 185.43 322.054 184.684C323.124 183.938 323.935 182.933 324.486 181.669C325.069 180.405 325.361 178.995 325.361 177.439C325.361 174.975 324.761 172.949 323.562 171.36C322.362 169.74 320.644 168.929 318.407 168.929C316.949 168.929 315.684 169.302 314.615 170.048C313.577 170.793 312.767 171.798 312.183 173.062C311.632 174.327 311.34 175.737 311.308 177.293C311.308 179.757 311.908 181.799 313.107 183.42C314.307 185.008 316.025 185.802 318.261 185.802Z" fill="white"/>
<path d="M343.219 189.158H338.551V165.574H341.177L342.684 169.415C343.3 168.897 344.062 168.346 344.97 167.762C345.877 167.146 346.817 166.628 347.79 166.206C348.795 165.785 349.719 165.574 350.561 165.574L351.583 169.318C350.74 169.318 349.8 169.529 348.762 169.95C347.757 170.339 346.769 170.858 345.796 171.506C344.856 172.122 343.997 172.803 343.219 173.549V189.158Z" fill="white"/>
<path d="M379.447 189.158H374.778V155.363L379.447 154.828V168.2C380.614 167.227 381.926 166.417 383.385 165.768C384.876 165.12 386.368 164.796 387.859 164.796C390.549 164.796 392.478 165.639 393.645 167.324C394.845 168.978 395.444 171.069 395.444 173.597V189.158H390.776V174.035C390.776 172.446 390.501 171.182 389.95 170.242C389.431 169.27 388.41 168.783 386.886 168.783C385.687 168.783 384.423 169.156 383.093 169.902C381.797 170.647 380.581 171.523 379.447 172.527V189.158Z" fill="white"/>
<path d="M420.93 165.574H425.598V189.158H422.34L421.513 186.045C420.314 187.148 418.92 188.072 417.332 188.817C415.743 189.563 414.139 189.936 412.518 189.936C409.859 189.936 407.931 189.109 406.731 187.456C405.532 185.77 404.932 183.663 404.932 181.134V165.574H409.6V180.697C409.6 182.285 409.859 183.566 410.378 184.538C410.929 185.478 411.967 185.948 413.49 185.948C414.69 185.948 415.938 185.575 417.234 184.83C418.564 184.084 419.795 183.209 420.93 182.204V165.574Z" fill="white"/>
<path d="M440.154 189.158H435.486V165.574H438.744L439.571 168.686C440.77 167.584 442.148 166.66 443.704 165.914C445.26 165.169 446.783 164.796 448.275 164.796C449.896 164.796 451.225 165.153 452.262 165.866C453.332 166.546 454.142 167.487 454.693 168.686C455.893 167.584 457.27 166.66 458.827 165.914C460.383 165.169 461.906 164.796 463.397 164.796C465.958 164.796 467.822 165.639 468.989 167.324C470.189 168.978 470.788 171.069 470.788 173.597V189.158H466.12V174.035C466.12 172.446 465.861 171.182 465.342 170.242C464.824 169.27 463.851 168.783 462.425 168.783C461.42 168.783 460.301 169.124 459.07 169.804C457.87 170.485 456.719 171.296 455.617 172.236C455.65 172.69 455.666 173.143 455.666 173.597V189.158H450.998V174.035C450.998 172.446 450.738 171.182 450.22 170.242C449.701 169.27 448.729 168.783 447.302 168.783C446.232 168.783 445.049 169.156 443.752 169.902C442.488 170.647 441.289 171.523 440.154 172.527V189.158Z" fill="white"/>
<path d="M482.562 170.728L481.249 167.033C481.865 166.611 482.676 166.255 483.681 165.963C484.686 165.639 485.707 165.396 486.744 165.234C487.781 165.039 488.624 164.942 489.273 164.942C491.088 164.942 492.709 165.315 494.135 166.06C495.594 166.773 496.729 167.762 497.539 169.026C498.382 170.258 498.803 171.636 498.803 173.16V189.158H495.545L494.962 186.921C494.151 187.634 493.114 188.282 491.85 188.866C490.586 189.449 489.321 189.741 488.057 189.741C485.269 189.741 483.194 189.044 481.833 187.65C480.504 186.256 479.839 184.489 479.839 182.35C479.839 179.983 480.633 178.184 482.222 176.952C483.843 175.688 485.934 175.056 488.495 175.056H494.087V174.813C494.087 173.192 493.762 171.847 493.114 170.777C492.466 169.675 491.218 169.124 489.37 169.124C487.976 169.124 486.712 169.302 485.577 169.659C484.442 169.983 483.438 170.339 482.562 170.728ZM484.021 182.35C484.021 183.258 484.345 184.1 484.994 184.878C485.642 185.656 486.631 186.045 487.96 186.045C489.159 186.045 490.278 185.754 491.315 185.17C492.385 184.587 493.325 183.841 494.135 182.933V178.168H488.397C486.971 178.168 485.885 178.589 485.139 179.432C484.394 180.275 484.021 181.248 484.021 182.35Z" fill="white"/>
<path d="M513.172 189.158H508.504V165.574H511.762L512.589 168.686C513.788 167.584 515.182 166.66 516.77 165.914C518.391 165.169 519.996 164.796 521.584 164.796C524.275 164.796 526.204 165.639 527.371 167.324C528.57 168.978 529.17 171.069 529.17 173.597V189.158H524.502V174.035C524.502 172.446 524.226 171.182 523.675 170.242C523.157 169.27 522.135 168.783 520.612 168.783C519.412 168.783 518.148 169.156 516.819 169.902C515.522 170.647 514.307 171.523 513.172 172.527V189.158Z" fill="white"/>
<path d="M537.599 187.65L539.058 184.392C540.063 184.878 541.1 185.267 542.17 185.559C543.24 185.851 544.31 185.997 545.379 185.997C546.935 185.997 548.167 185.721 549.075 185.17C550.015 184.619 550.485 183.89 550.485 182.982C550.485 182.074 549.983 181.296 548.978 180.648C548.005 179.967 546.757 179.384 545.234 178.897C544.002 178.476 542.786 177.957 541.587 177.341C540.42 176.725 539.447 175.964 538.669 175.056C537.891 174.148 537.502 173.062 537.502 171.798C537.502 169.659 538.296 167.989 539.885 166.79C541.506 165.558 543.694 164.942 546.449 164.942C547.13 164.942 547.924 165.039 548.832 165.234C549.772 165.396 550.712 165.639 551.652 165.963C552.592 166.287 553.386 166.692 554.035 167.179L552.576 170.339C551.668 169.918 550.712 169.545 549.707 169.221C548.735 168.897 547.616 168.735 546.352 168.735C545.12 168.735 544.099 169.026 543.289 169.61C542.51 170.161 542.121 170.858 542.121 171.701C542.154 172.414 542.608 173.046 543.483 173.597C544.391 174.116 545.558 174.618 546.984 175.105C548.281 175.558 549.529 176.142 550.728 176.855C551.96 177.536 552.965 178.363 553.743 179.335C554.553 180.308 554.959 181.442 554.959 182.739C554.959 184.943 554.132 186.678 552.479 187.942C550.858 189.174 548.491 189.79 545.379 189.79C544.731 189.79 543.921 189.709 542.948 189.547C541.976 189.384 541.003 189.141 540.031 188.817C539.09 188.493 538.28 188.104 537.599 187.65Z" fill="white"/>
<path fill-rule="evenodd" clip-rule="evenodd" d="M554.958 4.90989L552.83 2.7832H522.042V4.90989V22.7835V24.9233L532.829 24.9128L532.843 103.881L516.719 103.888L517.443 106.015V123.889L516.719 126.015H552.83L554.958 123.889V4.90989Z" fill="#DE4141"/>
<path fill-rule="evenodd" clip-rule="evenodd" d="M0.937393 4.91251L3.06539 2.7832H33.8068L33.0828 4.91251V22.7835L33.8068 24.9233L23.0552 24.918L23.0696 103.886L38.4533 103.888V106.015V123.886V126.015H3.06539L0.937393 123.886V4.91251Z" fill="#DE4141"/>
<path d="M425.764 2.72705L423.636 4.85471V123.833L425.764 125.961H504.572L506.7 123.833V105.961L504.572 103.833H449.509V4.85471L447.381 2.72705H425.764Z" fill="white"/>
<path d="M283.477 2.72852L281.349 4.85617V123.835L283.477 125.962H303.902L306.03 123.835V56.3105L337.372 124.721L339.306 125.962H349.519L351.453 124.721L382.796 56.3105V123.835L384.923 125.962H405.349L407.476 123.835V4.85617L405.349 2.72852H384.242L382.307 3.97176L344.413 86.8864L306.518 3.97176L304.583 2.72852H283.477Z" fill="white"/>
<path fill-rule="evenodd" clip-rule="evenodd" d="M236.574 8.24995C217.57 -2.4068 190.098 -2.18111 171.053 8.24995C161.282 13.6644 153.58 21.2565 147.948 31.0261C136.875 50.2311 136.875 78.9136 147.948 98.1186C153.349 107.373 161.103 115.027 170.37 120.374C189.567 131.451 218.237 131.451 237.434 120.374C246.627 115.004 254.313 107.314 259.679 98.1186C270.752 78.9136 270.752 50.2311 259.679 31.0261C254.047 21.2565 246.345 13.6644 236.574 8.24995ZM223.79 29.231C212.201 22.5483 195.449 22.6899 183.836 29.231C177.878 32.6263 173.182 37.3871 169.747 43.5135C162.995 55.5565 162.995 73.5428 169.747 85.5859C173.017 91.3473 177.728 96.1644 183.42 99.5419C195.126 106.488 212.608 106.488 224.314 99.5419C229.961 96.1503 234.63 91.3111 237.879 85.5859C244.631 73.5428 244.631 55.5565 237.879 43.5135C234.444 37.3871 229.748 32.6263 223.79 29.231Z" fill="white"/>
<path fill-rule="evenodd" clip-rule="evenodd" d="M43.8241 22.7861L45.9518 24.9138H79.739V123.892L81.8666 126.02H103.484L105.611 123.892V24.9138H139.398L141.526 22.7861V4.91379L139.398 2.78613H45.9518L43.8241 4.91379V22.7861Z" fill="white"/>
</svg>
