<svg width="555" height="201" viewBox="0 0 555 201" fill="none" xmlns="http://www.w3.org/2000/svg">
<path d="M18.5266 184.198L19.9367 187.553C19.256 188.007 18.4131 188.412 17.4082 188.768C16.4033 189.093 15.3983 189.336 14.3934 189.498C13.4209 189.692 12.5942 189.79 11.9135 189.79C9.5146 189.79 7.42369 189.271 5.64074 188.234C3.89021 187.164 2.54489 185.705 1.60479 183.857C0.664691 181.977 0.194641 179.805 0.194641 177.341C0.227058 174.878 0.713317 172.722 1.65342 170.874C2.62593 169.026 4.00367 167.584 5.78662 166.546C7.56957 165.477 9.67669 164.942 12.108 164.942C12.7563 164.942 13.5668 165.039 14.5393 165.234C15.5118 165.396 16.5005 165.655 17.5055 166.012C18.5104 166.336 19.3532 166.741 20.034 167.227L18.6725 170.534C17.6675 170.112 16.6626 169.74 15.6577 169.415C14.6527 169.091 13.4533 168.929 12.0594 168.929C10.6006 168.929 9.33631 169.302 8.26654 170.048C7.22918 170.793 6.41875 171.798 5.83524 173.062C5.28415 174.327 4.99239 175.737 4.95998 177.293C4.95998 179.757 5.5597 181.799 6.75913 183.42C7.95857 185.008 9.67669 185.802 11.9135 185.802C13.3398 185.802 14.5393 185.656 15.5118 185.365C16.5167 185.073 17.5217 184.684 18.5266 184.198Z" fill="black"/>
<path d="M38.473 189.79C36.0741 189.79 33.9994 189.271 32.2488 188.234C30.4983 187.164 29.153 185.705 28.2129 183.857C27.2728 181.977 26.8027 179.805 26.8027 177.341C26.8352 174.878 27.3214 172.722 28.2615 170.874C29.234 169.026 30.5956 167.584 32.3461 166.546C34.129 165.477 36.2362 164.942 38.6675 164.942C41.0988 164.942 43.1897 165.477 44.9402 166.546C46.6907 167.584 48.036 169.043 48.9761 170.923C49.9162 172.771 50.3863 174.926 50.3863 177.39C50.3863 179.821 49.9 181.977 48.9275 183.857C47.955 185.705 46.5773 187.164 44.7943 188.234C43.0438 189.271 40.9367 189.79 38.473 189.79ZM38.5216 185.802C40.0128 185.802 41.277 185.43 42.3144 184.684C43.3842 183.938 44.1946 182.933 44.7457 181.669C45.3292 180.405 45.621 178.995 45.621 177.439C45.621 174.975 45.0212 172.949 43.8218 171.36C42.6224 169.74 40.9043 168.929 38.6675 168.929C37.2087 168.929 35.9444 169.302 34.8746 170.048C33.8373 170.793 33.0269 171.798 32.4433 173.062C31.8923 174.327 31.6005 175.737 31.5681 177.293C31.5681 179.757 32.1678 181.799 33.3672 183.42C34.5667 185.008 36.2848 185.802 38.5216 185.802Z" fill="black"/>
<path d="M63.4791 189.158H58.811V165.574H62.0689L62.8956 168.686C64.095 167.584 65.4889 166.66 67.0774 165.914C68.6982 165.169 70.3029 164.796 71.8913 164.796C74.582 164.796 76.5108 165.639 77.6778 167.324C78.8773 168.978 79.477 171.069 79.477 173.597V189.158H74.8089V174.035C74.8089 172.446 74.5333 171.182 73.9823 170.242C73.4636 169.27 72.4424 168.783 70.9188 168.783C69.7194 168.783 68.4551 169.156 67.126 169.902C65.8293 170.647 64.6137 171.523 63.4791 172.527V189.158Z" fill="black"/>
<path d="M87.0309 169.415L86.9823 165.866H90.5806V162.802C90.5806 160.436 91.2452 158.556 92.5743 157.162C93.9034 155.735 95.735 155.022 98.069 155.022C98.7822 155.022 99.5116 155.136 100.257 155.363C101.003 155.589 101.586 155.833 102.008 156.092L100.841 159.69C100.517 159.561 100.128 159.447 99.6737 159.35C99.2523 159.22 98.8633 159.155 98.5067 159.155C97.3396 159.155 96.4968 159.544 95.9781 160.322C95.4919 161.068 95.2487 162.04 95.2487 163.24V165.866H99.6251L101.132 169.415H95.2487V189.158H90.5806V169.415H87.0309Z" fill="black"/>
<path d="M111.273 161.344C110.463 161.344 109.782 161.068 109.231 160.517C108.68 159.933 108.405 159.236 108.405 158.426C108.405 157.616 108.68 156.935 109.231 156.384C109.782 155.8 110.463 155.508 111.273 155.508C112.084 155.508 112.781 155.8 113.364 156.384C113.948 156.935 114.24 157.616 114.24 158.426C114.24 159.236 113.948 159.933 113.364 160.517C112.781 161.068 112.084 161.344 111.273 161.344ZM113.705 189.158H108.988V165.574H113.705V189.158Z" fill="black"/>
<path d="M143.713 165.574V191.248C143.713 192.967 143.276 194.506 142.4 195.868C141.525 197.262 140.245 198.348 138.559 199.126C136.906 199.936 134.863 200.341 132.432 200.341C131.784 200.341 130.941 200.244 129.904 200.05C128.866 199.888 127.813 199.628 126.743 199.272C125.705 198.915 124.814 198.494 124.068 198.007L125.479 194.652C126.613 195.171 127.667 195.609 128.639 195.965C129.644 196.354 130.86 196.549 132.286 196.549C134.231 196.549 135.836 196.095 137.1 195.187C138.364 194.279 138.997 192.95 138.997 191.2V188.136C138.056 188.687 137.116 189.093 136.176 189.352C135.236 189.644 134.458 189.79 133.842 189.79C131.443 189.79 129.352 189.271 127.569 188.234C125.819 187.164 124.474 185.689 123.534 183.809C122.593 181.928 122.123 179.724 122.123 177.196C122.123 174.732 122.61 172.592 123.582 170.777C124.555 168.929 125.916 167.503 127.667 166.498C129.45 165.46 131.524 164.942 133.891 164.942C134.636 164.942 135.593 165.12 136.76 165.477C137.927 165.801 139.045 166.384 140.115 167.227L141.039 165.574H143.713ZM126.889 177.147C126.889 179.675 127.488 181.75 128.688 183.371C129.887 184.992 131.605 185.802 133.842 185.802C134.912 185.802 135.852 185.64 136.663 185.316C137.473 184.992 138.251 184.489 138.997 183.809V170.777C137.57 169.545 135.852 168.929 133.842 168.929C131.638 168.929 129.92 169.723 128.688 171.312C127.488 172.868 126.889 174.813 126.889 177.147Z" fill="black"/>
<path d="M167.014 169.415L166.965 165.866H170.563V162.802C170.563 160.436 171.228 158.556 172.557 157.162C173.886 155.735 175.718 155.022 178.052 155.022C178.765 155.022 179.494 155.136 180.24 155.363C180.985 155.589 181.569 155.833 181.99 156.092L180.823 159.69C180.499 159.561 180.11 159.447 179.656 159.35C179.235 159.22 178.846 159.155 178.489 159.155C177.322 159.155 176.479 159.544 175.961 160.322C175.474 161.068 175.231 162.04 175.231 163.24V165.866H179.608L181.115 169.415H175.231V189.158H170.563V169.415H167.014Z" fill="black"/>
<path d="M191.256 161.344C190.446 161.344 189.765 161.068 189.214 160.517C188.663 159.933 188.387 159.236 188.387 158.426C188.387 157.616 188.663 156.935 189.214 156.384C189.765 155.8 190.446 155.508 191.256 155.508C192.067 155.508 192.763 155.8 193.347 156.384C193.93 156.935 194.222 157.616 194.222 158.426C194.222 159.236 193.93 159.933 193.347 160.517C192.763 161.068 192.067 161.344 191.256 161.344ZM193.687 189.158H188.971V165.574H193.687V189.158Z" fill="black"/>
<path d="M208.719 189.158H204.051V155.363L208.719 154.828V189.158Z" fill="black"/>
<path d="M239.24 178.411H222.512C222.674 180.583 223.371 182.366 224.603 183.76C225.835 185.154 227.78 185.851 230.438 185.851C231.832 185.851 233.032 185.656 234.037 185.267C235.074 184.878 236.241 184.376 237.538 183.76L238.997 187.164C237.83 187.877 236.517 188.493 235.058 189.012C233.632 189.498 232.092 189.741 230.438 189.741C227.651 189.741 225.3 189.222 223.388 188.185C221.475 187.148 220.032 185.705 219.06 183.857C218.12 181.977 217.65 179.805 217.65 177.341C217.65 174.878 218.104 172.722 219.011 170.874C219.919 169.026 221.216 167.584 222.901 166.546C224.587 165.477 226.597 164.942 228.931 164.942C231.395 164.942 233.372 165.542 234.863 166.741C236.387 167.94 237.489 169.529 238.17 171.506C238.883 173.484 239.24 175.623 239.24 177.925V178.411ZM222.61 175.251H234.717C234.426 173.305 233.81 171.766 232.87 170.631C231.93 169.496 230.568 168.929 228.785 168.929C226.97 168.929 225.543 169.513 224.506 170.68C223.469 171.814 222.837 173.338 222.61 175.251Z" fill="black"/>
<path d="M246.399 187.65L247.858 184.392C248.863 184.878 249.9 185.267 250.97 185.559C252.04 185.851 253.11 185.997 254.179 185.997C255.736 185.997 256.967 185.721 257.875 185.17C258.815 184.619 259.285 183.89 259.285 182.982C259.285 182.074 258.783 181.296 257.778 180.648C256.805 179.967 255.557 179.384 254.034 178.897C252.802 178.476 251.586 177.957 250.387 177.341C249.22 176.725 248.247 175.964 247.469 175.056C246.691 174.148 246.302 173.062 246.302 171.798C246.302 169.659 247.096 167.989 248.685 166.79C250.306 165.558 252.494 164.942 255.249 164.942C255.93 164.942 256.724 165.039 257.632 165.234C258.572 165.396 259.512 165.639 260.452 165.963C261.392 166.287 262.187 166.692 262.835 167.179L261.376 170.339C260.468 169.918 259.512 169.545 258.507 169.221C257.535 168.897 256.416 168.735 255.152 168.735C253.92 168.735 252.899 169.026 252.089 169.61C251.311 170.161 250.922 170.858 250.922 171.701C250.954 172.414 251.408 173.046 252.283 173.597C253.191 174.116 254.358 174.618 255.784 175.105C257.081 175.558 258.329 176.142 259.528 176.855C260.76 177.536 261.765 178.363 262.543 179.335C263.354 180.308 263.759 181.442 263.759 182.739C263.759 184.943 262.932 186.678 261.279 187.942C259.658 189.174 257.292 189.79 254.179 189.79C253.531 189.79 252.721 189.709 251.748 189.547C250.776 189.384 249.803 189.141 248.831 188.817C247.891 188.493 247.08 188.104 246.399 187.65Z" fill="black"/>
<path d="M285.302 169.415L285.253 165.866H288.851V162.802C288.851 160.436 289.516 158.556 290.845 157.162C292.174 155.735 294.006 155.022 296.34 155.022C297.053 155.022 297.782 155.136 298.528 155.363C299.274 155.589 299.857 155.833 300.278 156.092L299.111 159.69C298.787 159.561 298.398 159.447 297.944 159.35C297.523 159.22 297.134 159.155 296.777 159.155C295.61 159.155 294.768 159.544 294.249 160.322C293.763 161.068 293.519 162.04 293.519 163.24V165.866H297.896L299.403 169.415H293.519V189.158H288.851V169.415H285.302Z" fill="black"/>
<path d="M317.47 189.79C315.071 189.79 312.997 189.271 311.246 188.234C309.496 187.164 308.15 185.705 307.21 183.857C306.27 181.977 305.8 179.805 305.8 177.341C305.832 174.878 306.319 172.722 307.259 170.874C308.231 169.026 309.593 167.584 311.343 166.546C313.126 165.477 315.233 164.942 317.665 164.942C320.096 164.942 322.187 165.477 323.937 166.546C325.688 167.584 327.033 169.043 327.973 170.923C328.914 172.771 329.384 174.926 329.384 177.39C329.384 179.821 328.897 181.977 327.925 183.857C326.952 185.705 325.575 187.164 323.792 188.234C322.041 189.271 319.934 189.79 317.47 189.79ZM317.519 185.802C319.01 185.802 320.274 185.43 321.312 184.684C322.381 183.938 323.192 182.933 323.743 181.669C324.326 180.405 324.618 178.995 324.618 177.439C324.618 174.975 324.019 172.949 322.819 171.36C321.62 169.74 319.902 168.929 317.665 168.929C316.206 168.929 314.942 169.302 313.872 170.048C312.835 170.793 312.024 171.798 311.441 173.062C310.89 174.327 310.598 175.737 310.565 177.293C310.565 179.757 311.165 181.799 312.365 183.42C313.564 185.008 315.282 185.802 317.519 185.802Z" fill="black"/>
<path d="M342.476 189.158H337.808V165.574H340.434L341.941 169.415C342.557 168.897 343.319 168.346 344.227 167.762C345.135 167.146 346.075 166.628 347.047 166.206C348.052 165.785 348.976 165.574 349.819 165.574L350.84 169.318C349.997 169.318 349.057 169.529 348.02 169.95C347.015 170.339 346.026 170.858 345.053 171.506C344.113 172.122 343.254 172.803 342.476 173.549V189.158Z" fill="black"/>
<path d="M378.704 189.158H374.036V155.363L378.704 154.828V168.2C379.871 167.227 381.184 166.417 382.643 165.768C384.134 165.12 385.625 164.796 387.116 164.796C389.807 164.796 391.736 165.639 392.903 167.324C394.102 168.978 394.702 171.069 394.702 173.597V189.158H390.034V174.035C390.034 172.446 389.758 171.182 389.207 170.242C388.688 169.27 387.667 168.783 386.144 168.783C384.944 168.783 383.68 169.156 382.351 169.902C381.054 170.647 379.839 171.523 378.704 172.527V189.158Z" fill="black"/>
<path d="M420.187 165.574H424.855V189.158H421.598L420.771 186.045C419.571 187.148 418.177 188.072 416.589 188.817C415.001 189.563 413.396 189.936 411.775 189.936C409.117 189.936 407.188 189.109 405.989 187.456C404.789 185.77 404.189 183.663 404.189 181.134V165.574H408.858V180.697C408.858 182.285 409.117 183.566 409.636 184.538C410.187 185.478 411.224 185.948 412.748 185.948C413.947 185.948 415.195 185.575 416.492 184.83C417.821 184.084 419.053 183.209 420.187 182.204V165.574Z" fill="black"/>
<path d="M439.412 189.158H434.743V165.574H438.001L438.828 168.686C440.027 167.584 441.405 166.66 442.961 165.914C444.517 165.169 446.041 164.796 447.532 164.796C449.153 164.796 450.482 165.153 451.519 165.866C452.589 166.546 453.4 167.487 453.951 168.686C455.15 167.584 456.528 166.66 458.084 165.914C459.64 165.169 461.164 164.796 462.655 164.796C465.216 164.796 467.08 165.639 468.247 167.324C469.446 168.978 470.046 171.069 470.046 173.597V189.158H465.378V174.035C465.378 172.446 465.118 171.182 464.6 170.242C464.081 169.27 463.109 168.783 461.682 168.783C460.677 168.783 459.559 169.124 458.327 169.804C457.128 170.485 455.977 171.296 454.875 172.236C454.907 172.69 454.923 173.143 454.923 173.597V189.158H450.255V174.035C450.255 172.446 449.996 171.182 449.477 170.242C448.958 169.27 447.986 168.783 446.56 168.783C445.49 168.783 444.307 169.156 443.01 169.902C441.746 170.647 440.546 171.523 439.412 172.527V189.158Z" fill="black"/>
<path d="M481.82 170.728L480.507 167.033C481.123 166.611 481.933 166.255 482.938 165.963C483.943 165.639 484.964 165.396 486.001 165.234C487.039 165.039 487.882 164.942 488.53 164.942C490.345 164.942 491.966 165.315 493.393 166.06C494.851 166.773 495.986 167.762 496.796 169.026C497.639 170.258 498.061 171.636 498.061 173.16V189.158H494.803L494.219 186.921C493.409 187.634 492.371 188.282 491.107 188.866C489.843 189.449 488.579 189.741 487.314 189.741C484.526 189.741 482.452 189.044 481.09 187.65C479.761 186.256 479.097 184.489 479.097 182.35C479.097 179.983 479.891 178.184 481.479 176.952C483.1 175.688 485.191 175.056 487.752 175.056H493.344V174.813C493.344 173.192 493.02 171.847 492.371 170.777C491.723 169.675 490.475 169.124 488.627 169.124C487.233 169.124 485.969 169.302 484.834 169.659C483.7 169.983 482.695 170.339 481.82 170.728ZM483.278 182.35C483.278 183.258 483.603 184.1 484.251 184.878C484.899 185.656 485.888 186.045 487.217 186.045C488.417 186.045 489.535 185.754 490.572 185.17C491.642 184.587 492.582 183.841 493.393 182.933V178.168H487.655C486.228 178.168 485.142 178.589 484.397 179.432C483.651 180.275 483.278 181.248 483.278 182.35Z" fill="black"/>
<path d="M512.43 189.158H507.761V165.574H511.019L511.846 168.686C513.045 167.584 514.439 166.66 516.028 165.914C517.649 165.169 519.253 164.796 520.842 164.796C523.532 164.796 525.461 165.639 526.628 167.324C527.828 168.978 528.427 171.069 528.427 173.597V189.158H523.759V174.035C523.759 172.446 523.484 171.182 522.933 170.242C522.414 169.27 521.393 168.783 519.869 168.783C518.67 168.783 517.406 169.156 516.076 169.902C514.78 170.647 513.564 171.523 512.43 172.527V189.158Z" fill="black"/>
<path d="M536.857 187.65L538.315 184.392C539.32 184.878 540.358 185.267 541.427 185.559C542.497 185.851 543.567 185.997 544.637 185.997C546.193 185.997 547.425 185.721 548.332 185.17C549.272 184.619 549.742 183.89 549.742 182.982C549.742 182.074 549.24 181.296 548.235 180.648C547.263 179.967 546.015 179.384 544.491 178.897C543.259 178.476 542.043 177.957 540.844 177.341C539.677 176.725 538.704 175.964 537.926 175.056C537.148 174.148 536.759 173.062 536.759 171.798C536.759 169.659 537.554 167.989 539.142 166.79C540.763 165.558 542.951 164.942 545.707 164.942C546.387 164.942 547.182 165.039 548.089 165.234C549.029 165.396 549.969 165.639 550.91 165.963C551.85 166.287 552.644 166.692 553.292 167.179L551.833 170.339C550.926 169.918 549.969 169.545 548.964 169.221C547.992 168.897 546.874 168.735 545.609 168.735C544.377 168.735 543.356 169.026 542.546 169.61C541.768 170.161 541.379 170.858 541.379 171.701C541.411 172.414 541.865 173.046 542.74 173.597C543.648 174.116 544.815 174.618 546.241 175.105C547.538 175.558 548.786 176.142 549.986 176.855C551.217 177.536 552.222 178.363 553 179.335C553.811 180.308 554.216 181.442 554.216 182.739C554.216 184.943 553.389 186.678 551.736 187.942C550.115 189.174 547.749 189.79 544.637 189.79C543.988 189.79 543.178 189.709 542.206 189.547C541.233 189.384 540.26 189.141 539.288 188.817C538.348 188.493 537.537 188.104 536.857 187.65Z" fill="black"/>
<path fill-rule="evenodd" clip-rule="evenodd" d="M554.216 4.90989L552.088 2.7832H521.3V4.90989V22.7835V24.9233L532.086 24.9128L532.101 103.881L515.976 103.888L516.7 106.015V123.889L515.976 126.015H552.088L554.216 123.889V4.90989Z" fill="#DE4141"/>
<path fill-rule="evenodd" clip-rule="evenodd" d="M0.194641 4.91251L2.32264 2.7832H33.0641L32.3401 4.91251V22.7835L33.0641 24.9233L22.3124 24.918L22.3268 103.886L37.7105 103.888V106.015V123.886V126.015H2.32264L0.194641 123.886V4.91251Z" fill="#DE4141"/>
<path d="M425.021 2.72705L422.894 4.85471V123.833L425.021 125.961H503.83L505.957 123.833V105.961L503.83 103.833H448.766V4.85471L446.638 2.72705H425.021Z" fill="black"/>
<path d="M282.734 2.72852L280.606 4.85617V123.835L282.734 125.962H303.159L305.287 123.835V56.3105L336.629 124.721L338.563 125.962H348.776L350.711 124.721L382.053 56.3105V123.835L384.18 125.962H404.606L406.734 123.835V4.85617L404.606 2.72852H383.5L381.564 3.97176L343.67 86.8864L305.775 3.97176L303.84 2.72852H282.734Z" fill="black"/>
<path fill-rule="evenodd" clip-rule="evenodd" d="M235.832 8.24995C216.827 -2.4068 189.355 -2.18111 170.31 8.24995C160.539 13.6644 152.838 21.2565 147.205 31.0261C136.133 50.2311 136.133 78.9136 147.205 98.1186C152.606 107.373 160.36 115.027 169.627 120.374C188.824 131.451 217.494 131.451 236.691 120.374C245.885 115.004 253.57 107.314 258.937 98.1186C270.009 78.9136 270.009 50.2311 258.937 31.0261C253.304 21.2565 245.602 13.6644 235.832 8.24995ZM223.047 29.231C211.459 22.5483 194.707 22.6899 183.093 29.231C177.135 32.6263 172.439 37.3871 169.005 43.5135C162.253 55.5565 162.253 73.5428 169.005 85.5859C172.274 91.3473 176.986 96.1644 182.677 99.5419C194.383 106.488 211.866 106.488 223.571 99.5419C229.218 96.1503 233.887 91.3111 237.136 85.5859C243.888 73.5428 243.888 55.5565 237.136 43.5135C233.702 37.3871 229.005 32.6263 223.047 29.231Z" fill="black"/>
<path fill-rule="evenodd" clip-rule="evenodd" d="M43.0815 22.7861L45.2091 24.9138H78.9963V123.892L81.124 126.02H102.741L104.869 123.892V24.9138H138.656L140.783 22.7861V4.91379L138.656 2.78613H45.2091L43.0815 4.91379V22.7861Z" fill="black"/>
</svg>
