<?xml version="1.0" encoding="UTF-8" standalone="no"?>
<svg
   width="209"
   height="46"
   viewBox="0 0 209 46"
   fill="none"
   version="1.1"
   id="svg6"
   sodipodi:docname="logo.svg"
   inkscape:version="1.4 (e7c3feb100, 2024-10-09)"
   xmlns:inkscape="http://www.inkscape.org/namespaces/inkscape"
   xmlns:sodipodi="http://sodipodi.sourceforge.net/DTD/sodipodi-0.dtd"
   xmlns="http://www.w3.org/2000/svg"
   xmlns:svg="http://www.w3.org/2000/svg">
  <defs
     id="defs6" />
  <sodipodi:namedview
     id="namedview6"
     pagecolor="#ffffff"
     bordercolor="#000000"
     borderopacity="0.25"
     inkscape:showpageshadow="2"
     inkscape:pageopacity="0.0"
     inkscape:pagecheckerboard="0"
     inkscape:deskcolor="#d1d1d1"
     inkscape:zoom="7.9442688"
     inkscape:cx="175.09478"
     inkscape:cy="14.538783"
     inkscape:window-width="1536"
     inkscape:window-height="960"
     inkscape:window-x="-2"
     inkscape:window-y="-2"
     inkscape:window-maximized="1"
     inkscape:current-layer="svg6" />
  <path
     fill-rule="evenodd"
     clip-rule="evenodd"
     d="M 204.876,2.0916 204.13,1.34592 H 191.468 V 9.1089 l 5.649,-0.00368 0.005,27.68858 -5.654,0.0027 v 7.7584 h 12.662 l 0.746,-0.7457 z"
     fill="#de4141"
     id="path1"
     sodipodi:nodetypes="ccccccccccc" />
  <path
     fill-rule="evenodd"
     clip-rule="evenodd"
     d="M 2.61969,2.09252 3.36583,1.34592 H 15.7739 V 9.1089 l -5.39905,-0.00184 0.0051,27.68854 5.39399,9e-4 v 7.7584 H 3.36583 L 2.61969,43.8083 Z"
     fill="#de4141"
     id="path2"
     sodipodi:nodetypes="ccccccccccc" />
  <path
     d="m 155.577,1.32642 -0.746,0.74602 V 43.79 l 0.746,0.746 h 27.632 l 0.746,-0.746 v -6.2666 l -0.746,-0.746 H 163.902 V 2.07244 l -0.746,-0.74602 z"
     fill="#000000"
     id="path3" />
  <path
     d="m 105.6865,1.32666 -0.746,0.74602 V 43.7902 l 0.746,0.746 h 7.1615 l 0.746,-0.746 V 20.1141 l 10.99,23.9868 0.678,0.4353 h 3.581 l 0.678,-0.4353 10.99,-23.9868 v 23.6761 l 0.746,0.746 h 7.162 l 0.746,-0.746 V 2.07268 l -0.746,-0.74602 h -7.401 L 140.34,1.76258 127.053,30.835 113.766,1.76258 113.087,1.32666 Z"
     fill="#000000"
     id="path4" />
  <path
     fill-rule="evenodd"
     clip-rule="evenodd"
     d="m 89.2411,3.26271 c -6.6636,-3.736584 -16.2961,-3.657449 -22.9739,0 -3.4259,1.89848 -6.1264,4.56049 -8.1013,7.98599 -3.8823,6.7339 -3.8823,16.7908 0,23.5247 1.8937,3.245 4.6126,5.9285 7.862,7.8035 6.7309,3.884 16.7836,3.884 23.5145,0 3.2236,-1.8828 5.9184,-4.5793 7.8,-7.8035 3.8823,-6.7338 3.8823,-16.7908 0,-23.5247 C 95.3675,7.82319 92.667,5.16119 89.2411,3.26271 Z m -4.4826,7.35659 c -4.0633,-2.34314 -9.9371,-2.29352 -14.009,0 -2.0891,1.1905 -3.7357,2.8598 -4.94,5.0079 -2.3674,4.2226 -2.3674,10.5292 0,14.7519 1.1463,2.0201 2.7984,3.7091 4.794,4.8934 4.1045,2.4355 10.2344,2.4355 14.3388,0 1.9798,-1.1892 3.6171,-2.886 4.7563,-4.8934 2.3673,-4.2227 2.3673,-10.5293 0,-14.7519 -1.2043,-2.1481 -2.851,-3.8174 -4.9401,-5.0079 z"
     fill="#000000"
     id="path5" />
  <path
     fill-rule="evenodd"
     clip-rule="evenodd"
     d="m 21.657,8.35928 0.7461,0.74602 h 11.8468 v 34.7049 l 0.746,0.746 h 7.5796 l 0.746,-0.746 V 9.1053 H 55.1683 L 55.9144,8.35928 V 2.0927 L 55.1683,1.34668 H 22.4031 L 21.657,2.0927 Z"
     fill="#000000"
     id="path6" />
</svg>
