<svg width="195" height="46" viewBox="0 0 195 46" fill="none" xmlns="http://www.w3.org/2000/svg">
<path fill-rule="evenodd" clip-rule="evenodd" d="M194.876 2.0916L194.13 1.34592H183.335V2.0916V8.35862V9.1089L187.117 9.10522L187.122 36.7938L181.468 36.7965L181.722 37.5422V43.8092L181.468 44.5549H194.13L194.876 43.8092V2.0916Z" fill="black"/>
<path fill-rule="evenodd" clip-rule="evenodd" d="M0.619629 2.09252L1.36577 1.34592H12.1447L11.8908 2.09252V8.35862L12.1447 9.1089L8.37479 9.10706L8.37985 36.7956L13.7738 36.7965V37.5422V43.8083V44.5549H1.36577L0.619629 43.8083V2.09252Z" fill="black"/>
<path d="M149.577 1.32642L148.831 2.07244V43.79L149.577 44.536H177.209L177.955 43.79V37.5234L177.209 36.7774H157.902V2.07244L157.156 1.32642H149.577Z" fill="black"/>
<path d="M99.6865 1.32666L98.9404 2.07268V43.7902L99.6865 44.5362H106.848L107.594 43.7902V20.1141L118.584 44.1009L119.262 44.5362H122.843L123.521 44.1009L134.511 20.1141V43.7902L135.257 44.5362H142.419L143.165 43.7902V2.07268L142.419 1.32666H135.018L134.34 1.76258L121.053 30.835L107.766 1.76258L107.087 1.32666H99.6865Z" fill="black"/>
<path fill-rule="evenodd" clip-rule="evenodd" d="M83.2411 3.26271C76.5775 -0.473874 66.945 -0.394739 60.2672 3.26271C56.8413 5.16119 54.1408 7.8232 52.1659 11.2487C48.2836 17.9826 48.2836 28.0395 52.1659 34.7734C54.0596 38.0184 56.7785 40.7019 60.0279 42.5769C66.7588 46.4609 76.8115 46.4609 83.5424 42.5769C86.766 40.6941 89.4608 37.9976 91.3424 34.7734C95.2247 28.0396 95.2247 17.9826 91.3424 11.2487C89.3675 7.82319 86.667 5.16119 83.2411 3.26271ZM78.7585 10.6193C74.6952 8.27616 68.8214 8.32578 64.7495 10.6193C62.6604 11.8098 61.0138 13.4791 59.8095 15.6272C57.4421 19.8498 57.4421 26.1564 59.8095 30.3791C60.9558 32.3992 62.6079 34.0882 64.6035 35.2725C68.708 37.708 74.8379 37.708 78.9423 35.2725C80.9221 34.0833 82.5594 32.3865 83.6986 30.3791C86.0659 26.1564 86.0659 19.8498 83.6986 15.6272C82.4943 13.4791 80.8476 11.8098 78.7585 10.6193Z" fill="black"/>
<path fill-rule="evenodd" clip-rule="evenodd" d="M15.657 8.35928L16.403 9.1053H28.2498V43.8102L28.9958 44.5562H36.5754L37.3214 43.8102V9.1053H49.1683L49.9143 8.35928V2.0927L49.1683 1.34668H16.403L15.657 2.0927V8.35928Z" fill="black"/>
</svg>
