<svg width="60" height="46" viewBox="0 0 60 46" fill="none" xmlns="http://www.w3.org/2000/svg">
<path fill-rule="evenodd" clip-rule="evenodd" d="M0.299805 0.781674L1.07685 0.00415039H10.8022L10.5378 0.781674V7.60732L10.8022 8.38868L7.47618 8.38676L7.48145 37.8222L12.4989 37.8231V38.5997V44.2253V45.0029H1.07685L0.299805 44.2253V0.781674Z" fill="#DE4141"/>
<path fill-rule="evenodd" clip-rule="evenodd" d="M59.1964 0.782956L58.4193 0.00543213H48.694L48.9583 0.782956V7.60861L48.694 8.38996L52.02 8.38804L52.0147 37.8235L46.9973 37.8244V38.601V44.2266V45.0041H58.4193L59.1964 44.2266V0.782956Z" fill="#DE4141"/>
<path fill-rule="evenodd" clip-rule="evenodd" d="M14.3099 7.6085L15.0869 8.38542H25.1744V43.6278L25.9513 44.4047H33.5448L34.3217 43.6278V8.38542H44.4092L45.1862 7.6085V0.782354L44.4092 0.00543213H15.0869L14.3099 0.782354V7.6085Z" fill="white"/>
</svg>
